<svg xmlns="http://www.w3.org/2000/svg" xmlns:xlink="http://www.w3.org/1999/xlink" width="64" height="64" preserveAspectRatio="xMidYMid meet" viewBox="0 0 64 64" style="-ms-transform: rotate(360deg); -webkit-transform: rotate(360deg); transform: rotate(360deg);"><path fill="#947151" d="M25 52.1h14V64H25z"/><path d="M32 34.9L2 55.1s14.5 3.4 30 3.4s30-3.4 30-3.4L32 34.9z" fill="#71a03a"/><path d="M32 23.6L7 43.8s12.1 3.4 25 3.4s25-3.4 25-3.4L32 23.6z" fill="#76aa3f"/><path d="M32 12.3L12 32.5s9.7 3.4 20 3.4s20-3.4 20-3.4L32 12.3z" fill="#7cb545"/><path d="M32 1L17 20.8s7.2 3.8 15 3.8s15-3.8 15-3.8L32 1z" fill="#83bf4f"/><rect x="0" y="0" width="64" height="64" fill="rgba(0, 0, 0, 0)" /></svg>