<svg xmlns="http://www.w3.org/2000/svg" xmlns:xlink="http://www.w3.org/1999/xlink" width="24" height="24" preserveAspectRatio="xMidYMid meet" viewBox="0 0 24 24" style="-ms-transform: rotate(360deg); -webkit-transform: rotate(360deg); transform: rotate(360deg);"><g fill="none"><path d="M11.964 6.97s-3.075.306-4.685-1.035C5.669 4.593 6.036 2.03 6.036 2.03s3.075-.306 4.686 1.035c1.61 1.342 1.242 3.905 1.242 3.905z" stroke="#626262" stroke-width="2" stroke-linecap="round" stroke-linejoin="round"/><path d="M12.036 6.97s3.075.306 4.685-1.035c1.61-1.342 1.243-3.905 1.243-3.905s-3.075-.306-4.685 1.035c-1.61 1.342-1.243 3.905-1.243 3.905z" stroke="#626262" stroke-width="2" stroke-linecap="round" stroke-linejoin="round"/><path d="M4 11a1 1 0 0 1 1-1h14a1 1 0 0 1 1 1v2a1 1 0 0 1-1 1H5a1 1 0 0 1-1-1v-2z" stroke="#626262" stroke-width="2" stroke-linecap="round" stroke-linejoin="round"/><path d="M5 14h14l-2 8H7l-2-8z" stroke="#626262" stroke-width="2" stroke-linecap="round" stroke-linejoin="round"/></g><rect x="0" y="0" width="24" height="24" fill="rgba(0, 0, 0, 0)" /></svg>